PathFileType   4   (X/Y/Z)
DataRate	CameraRate	NumFrames	NumMarkers	Units	OrigDataRate	OrigDataStartFrame	OrigNumFrames
120.0	120.0	8	37	mm	120.0	49	194
Frame#	Time	midhip	hip_r	hip_l	knee_r	knee_l	ankle_r	ankle_l	midasis	asis_r	asis_l	psis_r	psis_l	epicondLat_r	epicondLat_l	epicondMed_r	epicondMed_l	malleolusLat_r	malleolusLat_l	malleolusMedv_r	malleolusMedv_l	neck	subclavicle_r	subclavicle_l	sternalnotch	xyphoidprocess	thighwand_r	thighwand_l	upperleg1_r	upperleg1_l	upperleg2_r	upperleg2_l	shankwand_r	shankwand_l	lowerleg1_r	lowerleg1_l	toe_r	toe_l
 	 	X1	Y1	Z1	X2	Y2	Z2	X3	Y3	Z3	X4	Y4	Z4	X5	Y5	Z5	X6	Y6	Z6	X7	Y7	Z7	X8	Y8	Z8	X9	Y9	Z9	X10	Y10	Z10	X11	Y11	Z11	X12	Y12	Z12	X13	Y13	Z13	X14	Y14	Z14	X15	Y15	Z15	X16	Y16	Z16	X17	Y17	Z17	X18	Y18	Z18	X19	Y19	Z19	X20	Y20	Z20	X21	Y21	Z21	X22	Y22	Z22	X23	Y23	Z23	X24	Y24	Z24	X25	Y25	Z25	X26	Y26	Z26	X27	Y27	Z27	X28	Y28	Z28	X29	Y29	Z29	X30	Y30	Z30	X31	Y31	Z31	X32	Y32	Z32	X33	Y33	Z33	X34	Y34	Z34	X35	Y35	Z35	X36	Y36	Z36	X37	Y37	Z37

	49	0.77500	328.994	770.837	-289.096	309.056	775.135	-210.242	311.381	772.810	-365.836	515.492	434.130	-192.701	277.407	422.556	-328.250	499.378	82.008	-202.957	236.735	58.426	-299.234	437.419	847.134	-287.232	435.542	849.011	-161.596	439.296	845.257	-412.867	193.148	916.120	-255.463	190.228	916.663	-310.100	518.262	439.472	-121.454	276.818	414.983	-399.345	520.318	425.295	-259.913	266.773	420.541	-243.687	488.423	81.434	-166.053	219.777	57.478	-334.897	506.266	93.434	-239.306	234.226	78.552	-259.228	238.762	1347.022	-295.749	359.942	1268.270	-257.297	358.365	1268.307	-340.033	341.747	1264.714	-310.538	385.945	1186.121	-310.181	575.503	651.058	-128.699	474.992	574.227	-350.179	530.891	647.988	-147.418	430.767	594.652	-359.985	552.600	573.241	-151.468	403.868	528.013	-350.236	587.976	220.606	-167.363	225.316	157.978	-411.029	544.612	230.094	-180.036	228.233	173.714	-365.664	602.757	64.781	-188.011	336.869	46.718	-314.145
	50	0.78333	332.400	770.353	-288.808	312.767	774.555	-209.888	314.511	772.425	-365.492	517.904	433.334	-194.702	279.442	422.435	-328.080	515.522	80.228	-202.331	236.891	58.473	-299.146	440.934	846.489	-287.262	439.526	848.208	-161.619	442.343	844.769	-412.905	196.832	915.709	-254.519	193.848	916.377	-309.250	520.884	438.297	-123.437	278.670	414.912	-399.179	521.017	424.060	-261.975	265.433	425.496	-241.399	504.359	79.507	-165.492	219.899	57.625	-334.794	522.553	91.592	-238.657	234.413	78.578	-259.092	242.411	1346.262	-295.360	364.026	1267.911	-257.722	362.188	1267.550	-339.635	345.540	1264.103	-310.334	390.065	1185.575	-309.891	578.427	648.729	-130.060	477.515	573.427	-350.344	534.014	646.094	-148.533	434.526	594.475	-360.103	554.989	571.267	-152.976	404.908	526.824	-349.242	598.700	222.373	-167.175	225.886	158.116	-410.948	555.532	230.047	-180.167	228.784	173.738	-365.491	619.337	66.219	-186.709	336.901	46.647	-313.726
	51	0.79167	335.882	769.828	-288.543	316.543	773.913	-209.547	317.727	772.023	-365.160	520.053	432.416	-196.687	281.517	422.302	-327.910	531.332	78.858	-201.575	237.044	58.508	-299.059	444.525	845.804	-287.269	443.568	847.330	-161.606	445.481	844.278	-412.932	200.576	915.253	-253.546	197.513	916.069	-308.359	523.276	437.020	-125.408	280.565	414.827	-399.011	520.622	422.168	-262.840	264.864	430.512	-239.682	519.965	77.987	-164.801	220.019	57.763	-334.693	539.852	89.858	-237.685	234.599	78.549	-258.944	245.974	1345.676	-295.092	367.897	1267.437	-258.001	365.551	1267.192	-340.008	349.435	1263.518	-310.078	393.711	1185.209	-310.504	581.296	646.160	-131.526	480.086	572.615	-350.509	536.946	644.155	-149.745	438.941	594.587	-360.676	556.924	569.061	-154.166	406.592	525.497	-348.382	609.021	224.296	-166.909	226.465	158.245	-410.887	567.563	230.414	-180.583	229.322	173.605	-365.323	635.460	68.026	-185.177	336.931	46.583	-313.299
	52	0.80000	339.439	769.261	-288.296	320.375	773.214	-209.224	321.031	771.607	-364.843	521.979	431.394	-198.633	283.635	422.157	-327.742	546.751	77.895	-200.710	237.179	58.538	-298.975	448.184	845.085	-287.246	447.654	846.383	-161.556	448.714	843.788	-412.937	204.390	914.755	-252.547	201.222	915.732	-307.424	525.474	435.664	-127.346	282.504	414.729	-398.846	521.476	419.366	-263.689	273.924	420.584	-240.392	535.198	76.869	-163.999	220.135	57.896	-334.603	555.507	89.033	-236.756	235.087	78.383	-258.832	249.934	1345.097	-294.720	371.432	1266.411	-257.450	370.170	1267.054	-338.449	353.358	1262.965	-309.734	397.944	1184.756	-309.992	584.123	643.366	-133.087	482.716	571.793	-350.680	539.554	641.375	-151.332	439.079	593.855	-359.095	558.911	566.567	-155.533	409.929	525.169	-349.071	618.919	226.371	-166.608	227.084	158.360	-410.836	578.187	230.946	-180.405	230.126	173.569	-365.032	651.085	70.190	-183.465	336.961	46.527	-312.889
	53	0.80833	343.051	768.658	-288.077	324.262	772.464	-208.910	324.419	771.179	-364.534	523.725	430.288	-200.520	285.794	421.998	-327.587	561.720	77.326	-199.766	237.288	58.570	-298.898	451.911	844.339	-287.192	451.784	845.376	-161.468	452.038	843.301	-412.915	208.281	914.220	-251.521	204.973	915.361	-306.438	527.521	434.249	-129.231	284.483	414.619	-398.693	522.319	417.408	-266.606	272.631	426.559	-243.333	550.012	76.144	-163.109	220.250	58.031	-334.531	568.986	88.844	-236.006	235.109	78.308	-258.678	254.166	1344.384	-293.987	375.237	1265.415	-256.409	374.484	1266.672	-338.001	357.278	1262.400	-309.246	402.021	1184.139	-309.687	586.922	640.365	-134.729	485.411	570.965	-350.864	542.169	638.464	-152.826	444.804	594.227	-361.110	561.091	563.741	-157.648	413.715	525.436	-350.117	628.381	228.591	-166.319	227.770	158.460	-410.784	586.424	231.285	-179.819	230.773	173.770	-364.693	666.177	72.692	-181.638	336.995	46.478	-312.524
	54	0.81667	346.733	768.020	-287.861	328.210	771.669	-208.596	327.888	770.740	-364.222	525.339	429.111	-202.325	287.997	421.824	-327.452	576.176	77.130	-198.770	237.377	58.613	-298.832	455.704	843.570	-287.105	455.964	844.321	-161.345	455.444	842.819	-412.865	212.252	913.654	-250.468	208.767	914.951	-305.396	529.461	432.788	-131.039	286.504	414.502	-398.561	521.103	416.037	-269.869	278.277	423.016	-243.009	564.356	75.793	-162.154	220.371	58.174	-334.481	583.334	88.460	-235.001	235.824	78.324	-258.717	258.041	1343.552	-292.970	379.298	1265.084	-255.914	378.187	1266.122	-337.652	361.175	1261.772	-308.667	406.047	1183.731	-309.163	589.705	637.179	-136.429	488.181	570.136	-351.069	544.861	635.714	-153.985	446.517	593.399	-361.043	562.929	560.637	-159.866	417.209	525.437	-350.427	637.400	230.945	-166.084	228.536	158.552	-410.720	594.990	231.784	-179.918	231.954	173.817	-364.749	680.699	75.505	-179.770	337.035	46.432	-312.223
	55	0.82500	350.496	767.352	-287.624	332.226	770.839	-208.269	331.430	770.290	-363.895	526.869	427.875	-204.027	290.251	421.636	-327.344	590.056	77.279	-197.748	237.468	58.674	-298.780	459.564	842.786	-286.991	460.208	843.229	-161.194	458.920	842.342	-412.787	216.302	913.063	-249.386	212.603	914.505	-304.290	531.339	431.293	-132.749	288.569	414.380	-398.455	519.134	414.091	-272.128	289.143	411.169	-241.901	578.181	75.794	-161.155	220.511	58.333	-334.454	597.919	88.258	-233.848	237.263	78.466	-258.982	261.534	1342.655	-292.012	383.468	1264.975	-255.606	381.700	1265.343	-336.918	365.072	1261.064	-308.026	410.141	1183.306	-308.201	592.483	633.840	-138.165	491.028	569.305	-351.302	547.888	632.736	-155.613	444.934	590.827	-359.318	564.300	557.507	-161.770	420.348	524.982	-350.565	645.970	233.414	-165.941	229.378	158.644	-410.642	603.751	232.552	-180.391	233.660	173.798	-365.240	694.615	78.588	-177.941	337.082	46.386	-311.997
	56	0.83333	354.356	766.659	-287.339	336.319	769.981	-207.920	335.037	769.832	-363.544	528.362	426.588	-205.601	292.568	421.434	-327.262	603.300	77.732	-196.725	237.592	58.755	-298.743	463.490	841.991	-286.854	464.526	842.112	-161.018	462.453	841.870	-412.690	220.429	912.452	-248.275	216.482	914.027	-303.120	533.198	429.773	-134.336	290.686	414.258	-398.376	518.395	411.704	-274.169	287.281	414.738	-244.542	591.435	76.115	-160.135	220.689	58.510	-334.443	610.671	88.936	-232.920	237.551	78.745	-259.054	265.185	1341.802	-291.602	387.654	1264.311	-254.861	385.316	1264.352	-336.348	368.943	1260.312	-307.400	414.059	1182.464	-307.408	595.264	630.387	-139.908	493.954	568.471	-351.572	551.108	629.650	-157.503	450.838	590.585	-358.889	565.990	554.224	-163.594	422.903	524.053	-351.053	654.089	235.965	-165.918	230.281	158.751	-410.551	611.853	233.712	-180.263	234.723	174.007	-365.508	707.888	81.894	-176.232	337.135	46.337	-311.848
